<?xml version="1.0" standalone="no"?>
<!DOCTYPE svg PUBLIC "-//W3C//DTD SVG 20010904//EN"
 "http://www.w3.org/TR/2001/REC-SVG-20010904/DTD/svg10.dtd">
<svg version="1.0" xmlns="http://www.w3.org/2000/svg"
 width="512.000000pt" height="512.000000pt" viewBox="0 0 512.000000 512.000000"
 preserveAspectRatio="xMidYMid meet">

<g transform="translate(0.000000,512.000000) scale(0.100000,-0.100000)"
fill="#FFFFFF" stroke="none">
<path d="M2307 4369 c-373 -65 -695 -264 -925 -571 -200 -268 -293 -549 -293
-887 0 -265 47 -461 167 -691 224 -432 656 -734 1122 -785 l62 -7 0 165 0 165
-52 7 c-120 16 -304 83 -412 148 -129 78 -299 245 -384 377 -116 180 -174 385
-174 620 0 324 110 590 337 816 179 178 346 266 592 314 374 72 755 -45 1026
-315 231 -230 330 -474 331 -815 0 -250 -53 -435 -181 -630 -58 -88 -192 -233
-275 -296 -108 -84 -268 -160 -406 -194 l-44 -11 44 -28 c51 -34 96 -81 211
-222 168 -207 303 -298 527 -356 77 -19 259 -40 373 -43 15 0 17 14 17 154 l0
154 -97 7 c-199 14 -358 73 -476 177 l-38 33 73 52 c179 128 378 369 465 562
132 296 170 589 117 906 -50 296 -176 541 -394 764 -227 234 -498 378 -804
431 -154 26 -358 26 -509 -1z"/>
<path d="M2450 4020 c-139 -15 -259 -50 -385 -113 -118 -59 -190 -111 -287
-209 -208 -210 -310 -440 -325 -733 -13 -247 47 -468 182 -670 179 -269 439
-435 768 -490 l37 -6 0 165 0 164 -32 7 c-68 14 -182 58 -241 92 -130 77 -285
257 -336 394 -54 142 -65 338 -26 489 29 116 101 246 182 331 170 177 342 253
578 253 224 0 385 -66 543 -222 162 -160 234 -337 234 -572 -1 -130 -27 -240
-83 -353 -102 -201 -309 -362 -523 -407 l-56 -11 0 -165 c0 -90 4 -164 9 -164
5 0 46 7 91 16 307 58 574 248 742 529 100 167 148 349 149 560 0 330 -113
592 -356 826 -220 212 -551 322 -865 289z" fill="#FF5722">
    <animateTransform attributeName="transform" type="rotate" from="360 2560 2910" to="0 2560 2910" dur="2s" repeatCount="indefinite"/>
</path>
<path d="M1960 3145 l0 -75 275 0 275 0 0 75 0 75 -275 0 -275 0 0 -75z"/>
<path d="M2600 3211 c0 -5 45 -166 100 -357 55 -191 100 -349 100 -351 0 -2
16 -3 35 -3 19 0 35 3 35 8 -1 4 -47 165 -104 357 l-102 350 -32 3 c-18 2 -32
-1 -32 -7z"/>
<path d="M2685 3208 c2 -7 47 -161 100 -343 53 -181 98 -338 101 -347 4 -13
16 -18 41 -18 24 0 34 4 30 13 -2 6 -49 168 -103 359 l-99 348 -37 0 c-26 0
-36 -4 -33 -12z"/>
<path d="M2991 3153 c-75 -255 -74 -253 -61 -310 7 -29 16 -53 20 -53 5 0 82
247 127 413 4 14 -1 17 -30 17 -36 0 -36 0 -56 -67z"/>
<path d="M3100 3217 c0 -2 -31 -110 -69 -239 l-69 -236 17 -59 c13 -43 19 -53
24 -38 3 11 40 139 82 285 42 146 78 271 80 278 3 8 -7 12 -30 12 -19 0 -35
-1 -35 -3z"/>
<path d="M2150 2725 l0 -225 35 0 35 0 0 225 0 225 -35 0 -35 0 0 -225z"/>
<path d="M2240 2725 l0 -225 35 0 35 0 0 225 0 225 -35 0 -35 0 0 -225z"/>
<path d="M2708 1752 l-28 -3 0 -161 0 -160 42 -52 c167 -203 323 -330 533
-432 186 -90 415 -144 611 -144 l104 0 0 154 0 153 -142 5 c-223 8 -396 58
-555 160 -97 63 -140 103 -240 227 -174 214 -238 264 -325 253z"/>
</g>
</svg>
